<svg id="Layer_1" data-name="Layer 1" xmlns="http://www.w3.org/2000/svg" viewBox="0 0 26 26.01"><defs><style>.cls-1{fill:#fff;}</style></defs><title>close-icon</title><path class="cls-1" d="M11.31,12.77a1,1,0,0,0,.71.29,1,1,0,0,0,.7-1.7l-8-8a1,1,0,0,0-1.41,0,1,1,0,0,0,0,1.41Z" transform="translate(-2.94 -2.99)"/><path class="cls-1" d="M17.41,16.05,28.65,4.79a1,1,0,0,0,0-1.41,1,1,0,0,0-1.41-.17L15.3,15H15v.35L3.2,27.3a1,1,0,0,0,.07,1.41A1.07,1.07,0,0,0,4,29a1,1,0,0,0,.73-.29L16,17.46,27.24,28.71a1,1,0,0,0,1.41,0,1,1,0,0,0,0-1.41Z" transform="translate(-2.94 -2.99)"/></svg>