<svg id="Layer_1" data-name="Layer 1" xmlns="http://www.w3.org/2000/svg" viewBox="0 0 56 52.4"><defs><style>.cls-1{fill:#fff;}</style></defs><title>message-icon</title><g id="Layer_1-2" data-name="Layer 1"><g id="basecamp"><path class="cls-1" d="M65.3,50.5a1.11,1.11,0,0,0-1.1-1.1.91.91,0,0,0-.7.3,20.49,20.49,0,0,1-13.4,4.8h0a20.71,20.71,0,0,1-13.4-4.8,1.13,1.13,0,0,0-1.9.9,2.23,2.23,0,0,0,.6,1.3c1.7,2.5,6.8,6.7,14.6,6.7h0c7.8,0,12.9-4.2,14.6-6.7A2.35,2.35,0,0,0,65.3,50.5Z" transform="translate(-22 -21)"/><path class="cls-1" d="M73,70a9.8,9.8,0,0,1-4.7-5.6,1,1,0,0,1,.4-1.2c5.7-4.4,9.3-10.8,9.3-18C78,31.9,65.5,21,50,21S22,31.8,22,45.2,34.5,69.4,50,69.4a38.08,38.08,0,0,0,5.9-.5,1.64,1.64,0,0,1,1.2.2,29.34,29.34,0,0,0,14.5,4.3,2,2,0,0,0,2.2-2A1.39,1.39,0,0,0,73,70Zm-7.5-2.4a.37.37,0,0,1,.1.3.32.32,0,0,1-.3.3c-1.4,0-5.7-2.3-8-4.2a1.28,1.28,0,0,0-1.4-.2,28.8,28.8,0,0,1-5.9.6c-12.9,0-23.3-8.6-23.3-19.2S37.1,26,50,26s23.3,8.6,23.3,19.2c0,6.3-3.7,12-9.4,15.5a1.48,1.48,0,0,0-.8,1.2A12.46,12.46,0,0,0,65.5,67.6Z" transform="translate(-22 -21)"/></g></g></svg>