<svg id="Layer_1" data-name="Layer 1" xmlns="http://www.w3.org/2000/svg" viewBox="0 0 387.3 387.2"><defs><style>.cls-1{fill:none;stroke-linecap:round;stroke-width:12px;}.cls-1,.cls-2{stroke:#005bea;stroke-miterlimit:10;}.cls-2{fill:#005bea;}</style></defs><title>send-icon-enabled</title><path class="cls-1" d="M324.8,115.2q50.1-22,100.3-44c2-.9,4-1.7,6-2.5h3.7a15.26,15.26,0,0,1,8.8,8.1v5.1Q406.25,168,368.9,254.2q-39,90-78,180.1c-1.9,4.5-4.5,8-9.2,9.6H278c-4.5-1.3-7.2-4.6-9.5-8.5-5.6-9.5-11.1-19-16.7-28.5" transform="translate(-62.3 -62.7)"/><path class="cls-1" d="M231.6,372.6c-10.9-18.5-21.8-36.9-32.7-55.4a14.68,14.68,0,0,0-5.3-5.2q-58.2-33.15-116.4-66.1c-3.8-2.2-7.1-4.6-8.9-8.7v-5.1c1.8-4.7,5.5-7,9.9-9q96.9-42.45,193.9-84.9" transform="translate(-62.3 -62.7)"/><path class="cls-1" d="M298,127c.5-.2-.2.6.4.3" transform="translate(-62.3 -62.7)"/><path class="cls-2" d="M194.9,315.2h0a6.1,6.1,0,0,1,0-8.5L431.8,69.8a6.1,6.1,0,0,1,8.5,0h0a6.1,6.1,0,0,1,0,8.5L203.4,315.2A6.1,6.1,0,0,1,194.9,315.2Z" transform="translate(-62.3 -62.7)"/></svg>